<svg width="834" height="182" viewBox="0 0 834 182" fill="none" xmlns="http://www.w3.org/2000/svg">
<path d="M83.6243 99.81C83.8843 99.81 84.0843 99.93 84.2243 100.17C84.3843 100.41 84.4643 100.74 84.4643 101.16C84.4643 101.94 84.2743 102.56 83.8943 103.02C81.9143 105.44 79.8043 106.65 77.5643 106.65C75.6243 106.65 74.0743 105.9 72.9143 104.4C71.7543 102.9 71.1743 100.75 71.1743 97.95C71.1743 97.27 71.2043 96.59 71.2643 95.91C69.9443 96.15 68.5043 96.33 66.9443 96.45C65.9043 96.53 65.1943 96.58 64.8143 96.6C64.4143 98.64 63.8543 101.14 63.1343 104.1C62.7143 105.84 61.9143 106.71 60.7343 106.71C59.4543 106.71 58.8143 106.13 58.8143 104.97C58.8143 104.71 58.8643 104.35 58.9643 103.89C59.6443 101.15 60.1843 98.83 60.5843 96.93L59.1443 96.99C58.4843 96.99 58.0043 96.88 57.7043 96.66C57.4043 96.42 57.2543 96.04 57.2543 95.52C57.2543 94.86 57.4443 94.38 57.8243 94.08C58.2043 93.76 58.8343 93.58 59.7143 93.54L61.3043 93.48C61.8243 90.66 62.0843 88.51 62.0843 87.03C62.0843 86.09 61.9443 85.45 61.6643 85.11C61.3843 84.77 61.0143 84.6 60.5543 84.6C59.1543 84.6 57.5743 85.77 55.8143 88.11C55.5543 88.45 55.2643 88.62 54.9443 88.62C54.6643 88.62 54.4243 88.49 54.2243 88.23C54.0243 87.97 53.9243 87.64 53.9243 87.24C53.9243 86.62 54.1743 85.96 54.6743 85.26C55.5543 84.04 56.6643 83.04 58.0043 82.26C59.3443 81.46 60.7043 81.06 62.0843 81.06C63.3843 81.06 64.3843 81.51 65.0843 82.41C65.8043 83.29 66.1643 84.67 66.1643 86.55C66.1643 88.21 65.9243 90.46 65.4443 93.3L68.3843 93.15C69.6443 93.09 70.7243 92.99 71.6243 92.85C71.9843 90.65 72.5343 88.59 73.2743 86.67C74.0143 84.75 74.9343 83.19 76.0343 81.99C77.1343 80.79 78.3643 80.19 79.7243 80.19C80.7243 80.19 81.5143 80.59 82.0943 81.39C82.6743 82.17 82.9643 83.2 82.9643 84.48C82.9643 89.44 80.4343 92.88 75.3743 94.8C75.3143 95.6 75.2843 96.43 75.2843 97.29C75.2843 99.39 75.5443 100.88 76.0643 101.76C76.5843 102.64 77.3143 103.08 78.2543 103.08C79.0743 103.08 79.8243 102.87 80.5043 102.45C81.1843 102.01 81.9543 101.27 82.8143 100.23C83.0543 99.95 83.3243 99.81 83.6243 99.81ZM79.5743 82.8C79.1343 82.8 78.6643 83.2 78.1643 84C77.6843 84.8 77.2243 85.89 76.7843 87.27C76.3443 88.65 75.9943 90.16 75.7343 91.8C77.3343 91.14 78.5143 90.2 79.2743 88.98C80.0343 87.76 80.4143 86.19 80.4143 84.27C80.4143 83.81 80.3343 83.45 80.1743 83.19C80.0143 82.93 79.8143 82.8 79.5743 82.8Z" fill="#0076D7"/>
<path d="M54.6001 99.0243L9.48771 72.9983C8.47891 72.4161 8.31571 71.0469 9.1606 70.2518C11.5282 68.0213 14.8434 67.0523 18.0644 67.648L33.5828 70.5206L37.1859 67.1262C38.6957 65.7039 41.0914 65.7552 42.5359 67.2408C43.8858 68.6292 43.9126 70.7678 42.681 72.2049L53.5955 74.2253L57.5827 70.469C59.0924 69.0467 61.4882 69.098 62.9336 70.5836C64.379 72.0693 64.3268 74.4268 62.8171 75.8491L62.7432 75.9187L76.4382 78.4533L85.0489 70.3413L59.8697 44.4611C46.9786 31.2112 25.6139 30.7534 12.1499 43.4387C-1.31503 56.123 -1.78023 77.1475 11.1109 90.3966L36.2901 116.277L54.6001 99.0243Z" fill="#313341"/>
<path d="M98.3059 83.9688L89.6952 92.0808L91.6724 105.655L91.7463 105.585C93.2561 104.163 95.6518 104.214 97.0972 105.7C98.5426 107.185 98.4905 109.542 96.9807 110.965L92.9935 114.722L93.9127 121.028L115.018 101.145L98.3059 83.9688Z" fill="#FFCC23"/>
<path d="M67.8588 112.653L49.547 129.904L66.258 147.08L79.6093 134.502L67.8588 112.653Z" fill="#313341"/>
<path d="M124.901 45.8532C112.011 32.6033 90.6454 32.1456 77.1814 44.8308L47.2311 73.0468L53.5937 74.2249L57.581 70.4686C59.0907 69.0463 61.4864 69.0976 62.9319 70.5833C64.3773 72.0689 64.3251 74.4264 62.8153 75.8487L62.7415 75.9183L76.4365 78.4529L86.4581 69.0116C92.5664 63.2571 100.17 59.2722 108.431 57.4963C110.866 56.9728 113.002 59.1681 112.364 61.5388C110.202 69.5835 105.825 76.885 99.7169 82.6395L89.6954 92.0808L91.6725 105.655L91.7464 105.585C93.2562 104.163 95.6519 104.214 97.0973 105.7C98.5427 107.185 98.4906 109.542 96.9808 110.965L92.9936 114.722L93.9128 121.028L123.863 92.812C137.327 80.1267 137.792 59.1022 124.901 45.8532Z" fill="#0076D7"/>
<path d="M158.949 79.6074C158.949 85.0111 159.828 89.0964 161.586 91.8633C163.376 94.6302 166.273 96.0137 170.277 96.0137C174.249 96.0137 177.097 94.6465 178.822 91.9121C180.58 89.1452 181.459 85.0436 181.459 79.6074C181.459 74.2038 180.58 70.151 178.822 67.4492C177.064 64.7474 174.184 63.3965 170.18 63.3965C166.208 63.3965 163.344 64.7474 161.586 67.4492C159.828 70.1185 158.949 74.1712 158.949 79.6074ZM196.693 79.6074C196.693 88.4941 194.35 95.444 189.662 100.457C184.975 105.47 178.448 107.977 170.082 107.977C164.841 107.977 160.219 106.837 156.215 104.559C152.211 102.247 149.135 98.9434 146.986 94.6465C144.838 90.3496 143.764 85.3366 143.764 79.6074C143.764 70.6882 146.091 63.7546 150.746 58.8066C155.401 53.8587 161.944 51.3848 170.375 51.3848C175.616 51.3848 180.238 52.5241 184.242 54.8027C188.246 57.0814 191.322 60.3529 193.471 64.6172C195.619 68.8815 196.693 73.8783 196.693 79.6074ZM223.891 107H208.998V31.0234H223.891V107ZM238.93 38.2988C238.93 33.4486 241.632 31.0234 247.035 31.0234C252.439 31.0234 255.141 33.4486 255.141 38.2988C255.141 40.61 254.457 42.4167 253.09 43.7188C251.755 44.9883 249.737 45.623 247.035 45.623C241.632 45.623 238.93 43.1816 238.93 38.2988ZM254.457 107H239.564V52.4102H254.457V107ZM287.416 107.977C281.003 107.977 275.958 105.486 272.279 100.506C268.633 95.5254 266.811 88.6243 266.811 79.8027C266.811 70.8509 268.666 63.8848 272.377 58.9043C276.12 53.8913 281.264 51.3848 287.807 51.3848C294.675 51.3848 299.916 54.054 303.529 59.3926H304.018C303.269 55.3236 302.895 51.694 302.895 48.5039V31.0234H317.836V107H306.41L303.529 99.9199H302.895C299.509 105.291 294.35 107.977 287.416 107.977ZM292.641 96.1113C296.449 96.1113 299.232 95.0046 300.99 92.791C302.781 90.5775 303.757 86.8177 303.92 81.5117V79.9004C303.92 74.041 303.008 69.8418 301.186 67.3027C299.395 64.7637 296.465 63.4941 292.396 63.4941C289.076 63.4941 286.488 64.9102 284.633 67.7422C282.81 70.5417 281.898 74.627 281.898 79.998C281.898 85.3691 282.826 89.4056 284.682 92.1074C286.537 94.7767 289.19 96.1113 292.641 96.1113ZM368.08 107L365.199 99.5781H364.809C362.302 102.736 359.714 104.933 357.045 106.17C354.408 107.374 350.958 107.977 346.693 107.977C341.452 107.977 337.318 106.479 334.291 103.484C331.296 100.49 329.799 96.2253 329.799 90.6914C329.799 84.8971 331.817 80.6328 335.854 77.8984C339.923 75.1315 346.042 73.6016 354.213 73.3086L363.686 73.0156V70.623C363.686 65.0892 360.854 62.3223 355.189 62.3223C350.827 62.3223 345.701 63.6406 339.809 66.2773L334.877 56.2188C341.16 52.931 348.126 51.2871 355.775 51.2871C363.1 51.2871 368.715 52.8822 372.621 56.0723C376.527 59.2624 378.48 64.1126 378.48 70.623V107H368.08ZM363.686 81.707L357.924 81.9023C353.594 82.0326 350.372 82.8138 348.256 84.2461C346.14 85.6784 345.082 87.8594 345.082 90.7891C345.082 94.9883 347.491 97.0879 352.309 97.0879C355.759 97.0879 358.51 96.0951 360.561 94.1094C362.644 92.1237 363.686 89.487 363.686 86.1992V81.707ZM386.049 52.4102H402.357L412.66 83.123C413.539 85.7923 414.141 88.9499 414.467 92.5957H414.76C415.118 89.2428 415.818 86.0853 416.859 83.123L426.967 52.4102H442.934L419.838 113.982C417.722 119.679 414.695 123.943 410.756 126.775C406.85 129.607 402.276 131.023 397.035 131.023C394.464 131.023 391.941 130.747 389.467 130.193V118.377C391.257 118.8 393.21 119.012 395.326 119.012C397.963 119.012 400.258 118.198 402.211 116.57C404.197 114.975 405.743 112.55 406.85 109.295L407.729 106.609L386.049 52.4102Z" fill="#0076D7"/>
<path d="M467.104 69.207H472.084C476.739 69.207 480.222 68.2956 482.533 66.4727C484.844 64.6172 486 61.9316 486 58.416C486 54.8678 485.023 52.2474 483.07 50.5547C481.15 48.862 478.122 48.0156 473.988 48.0156H467.104V69.207ZM501.283 57.8789C501.283 65.5612 498.874 71.4368 494.057 75.5059C489.271 79.5749 482.452 81.6094 473.598 81.6094H467.104V107H451.967V35.6133H474.77C483.428 35.6133 490.004 37.485 494.496 41.2285C499.021 44.9395 501.283 50.4896 501.283 57.8789ZM528.48 107H513.588V31.0234H528.48V107ZM578.822 107L575.941 99.5781H575.551C573.044 102.736 570.456 104.933 567.787 106.17C565.15 107.374 561.7 107.977 557.436 107.977C552.195 107.977 548.061 106.479 545.033 103.484C542.038 100.49 540.541 96.2253 540.541 90.6914C540.541 84.8971 542.559 80.6328 546.596 77.8984C550.665 75.1315 556.785 73.6016 564.955 73.3086L574.428 73.0156V70.623C574.428 65.0892 571.596 62.3223 565.932 62.3223C561.57 62.3223 556.443 63.6406 550.551 66.2773L545.619 56.2188C551.902 52.931 558.868 51.2871 566.518 51.2871C573.842 51.2871 579.457 52.8822 583.363 56.0723C587.27 59.2624 589.223 64.1126 589.223 70.623V107H578.822ZM574.428 81.707L568.666 81.9023C564.337 82.0326 561.114 82.8138 558.998 84.2461C556.882 85.6784 555.824 87.8594 555.824 90.7891C555.824 94.9883 558.233 97.0879 563.051 97.0879C566.501 97.0879 569.252 96.0951 571.303 94.1094C573.386 92.1237 574.428 89.487 574.428 86.1992V81.707ZM654.994 107H640.102V75.1152C640.102 71.1764 639.402 68.2305 638.002 66.2773C636.602 64.2917 634.372 63.2988 631.312 63.2988C627.146 63.2988 624.135 64.6986 622.279 67.498C620.424 70.265 619.496 74.8711 619.496 81.3164V107H604.604V52.4102H615.98L617.982 59.3926H618.812C620.473 56.7559 622.751 54.7702 625.648 53.4355C628.578 52.0684 631.898 51.3848 635.609 51.3848C641.957 51.3848 646.775 53.11 650.062 56.5605C653.35 59.9785 654.994 64.9264 654.994 71.4043V107ZM720.717 107H705.824V75.1152C705.824 71.1764 705.124 68.2305 703.725 66.2773C702.325 64.2917 700.095 63.2988 697.035 63.2988C692.868 63.2988 689.857 64.6986 688.002 67.498C686.146 70.265 685.219 74.8711 685.219 81.3164V107H670.326V52.4102H681.703L683.705 59.3926H684.535C686.195 56.7559 688.474 54.7702 691.371 53.4355C694.301 52.0684 697.621 51.3848 701.332 51.3848C707.68 51.3848 712.497 53.11 715.785 56.5605C719.073 59.9785 720.717 64.9264 720.717 71.4043V107ZM758.656 61.9805C755.499 61.9805 753.025 62.9896 751.234 65.0078C749.444 66.9935 748.419 69.8255 748.158 73.5039H769.057C768.992 69.8255 768.031 66.9935 766.176 65.0078C764.32 62.9896 761.814 61.9805 758.656 61.9805ZM760.756 107.977C751.967 107.977 745.098 105.551 740.15 100.701C735.202 95.8509 732.729 88.9824 732.729 80.0957C732.729 70.9486 735.007 63.8848 739.564 58.9043C744.154 53.8913 750.486 51.3848 758.559 51.3848C766.273 51.3848 772.279 53.582 776.576 57.9766C780.873 62.3711 783.021 68.4421 783.021 76.1895V83.416H747.816C747.979 87.6478 749.232 90.9518 751.576 93.3281C753.92 95.7044 757.208 96.8926 761.439 96.8926C764.727 96.8926 767.836 96.5508 770.766 95.8672C773.695 95.1836 776.755 94.0931 779.945 92.5957V104.119C777.341 105.421 774.558 106.382 771.596 107C768.633 107.651 765.02 107.977 760.756 107.977ZM825.6 51.3848C827.618 51.3848 829.294 51.5312 830.629 51.8242L829.506 65.7891C828.301 65.4635 826.837 65.3008 825.111 65.3008C820.359 65.3008 816.648 66.5215 813.979 68.9629C811.342 71.4043 810.023 74.8223 810.023 79.2168V107H795.131V52.4102H806.41L808.607 61.5898H809.34C811.033 58.5299 813.311 56.0723 816.176 54.2168C819.073 52.3288 822.214 51.3848 825.6 51.3848Z" fill="#354141"/>
<path d="M164.155 172H150.642V147.729H164.155V150.219H153.464V158.071H163.541V160.528H153.464V169.51H164.155V172ZM177.672 172H174.899V146.168H177.672V172ZM196.285 153.473C197.834 153.473 199.162 153.816 200.269 154.502C201.376 155.188 202.223 156.151 202.809 157.391C203.396 158.619 203.689 160.058 203.689 161.707V163.417H191.122C191.155 165.553 191.686 167.18 192.715 168.298C193.745 169.416 195.195 169.975 197.065 169.975C198.216 169.975 199.234 169.869 200.12 169.659C201.005 169.449 201.924 169.139 202.876 168.729V171.153C201.957 171.563 201.044 171.862 200.136 172.05C199.24 172.238 198.177 172.332 196.949 172.332C195.2 172.332 193.673 171.978 192.367 171.27C191.072 170.55 190.065 169.499 189.345 168.115C188.626 166.732 188.266 165.038 188.266 163.035C188.266 161.076 188.593 159.383 189.246 157.955C189.91 156.516 190.839 155.41 192.035 154.635C193.241 153.86 194.658 153.473 196.285 153.473ZM196.252 155.73C194.78 155.73 193.606 156.212 192.732 157.175C191.858 158.138 191.338 159.482 191.172 161.209H200.8C200.789 160.124 200.618 159.173 200.286 158.354C199.965 157.523 199.472 156.882 198.808 156.428C198.144 155.963 197.292 155.73 196.252 155.73ZM218.152 172L211.245 153.805H214.201L218.202 164.812C218.478 165.564 218.76 166.394 219.048 167.302C219.336 168.209 219.535 168.94 219.646 169.493H219.762C219.895 168.94 220.116 168.209 220.426 167.302C220.736 166.383 221.018 165.553 221.273 164.812L225.274 153.805H228.229L221.306 172H218.152ZM243.737 153.506C245.907 153.506 247.517 153.993 248.568 154.967C249.62 155.941 250.146 157.496 250.146 159.632V172H248.137L247.606 169.311H247.473C246.964 169.975 246.432 170.534 245.879 170.987C245.326 171.43 244.684 171.768 243.953 172C243.234 172.221 242.348 172.332 241.297 172.332C240.19 172.332 239.205 172.138 238.342 171.751C237.49 171.364 236.815 170.777 236.316 169.991C235.829 169.205 235.586 168.209 235.586 167.003C235.586 165.188 236.305 163.793 237.744 162.819C239.183 161.845 241.374 161.314 244.318 161.226L247.456 161.093V159.98C247.456 158.409 247.119 157.308 246.443 156.677C245.768 156.046 244.816 155.73 243.588 155.73C242.636 155.73 241.729 155.869 240.865 156.146C240.002 156.422 239.183 156.749 238.408 157.125L237.562 155.033C238.381 154.613 239.321 154.253 240.384 153.954C241.446 153.655 242.564 153.506 243.737 153.506ZM247.423 163.035L244.65 163.151C242.382 163.24 240.782 163.611 239.853 164.264C238.923 164.917 238.458 165.841 238.458 167.036C238.458 168.076 238.774 168.846 239.404 169.344C240.035 169.842 240.871 170.091 241.911 170.091C243.527 170.091 244.85 169.643 245.879 168.746C246.908 167.85 247.423 166.505 247.423 164.712V163.035ZM267.48 170.074C267.934 170.074 268.399 170.035 268.875 169.958C269.351 169.881 269.738 169.786 270.037 169.676V171.817C269.716 171.961 269.268 172.083 268.692 172.183C268.128 172.282 267.574 172.332 267.032 172.332C266.069 172.332 265.195 172.166 264.409 171.834C263.623 171.491 262.992 170.915 262.516 170.107C262.052 169.299 261.819 168.182 261.819 166.754V155.963H259.229V154.618L261.836 153.539L262.931 149.588H264.592V153.805H269.921V155.963H264.592V166.671C264.592 167.811 264.852 168.663 265.372 169.228C265.903 169.792 266.606 170.074 267.48 170.074ZM286.508 153.473C288.058 153.473 289.386 153.816 290.493 154.502C291.599 155.188 292.446 156.151 293.033 157.391C293.619 158.619 293.913 160.058 293.913 161.707V163.417H281.345C281.378 165.553 281.91 167.18 282.939 168.298C283.968 169.416 285.418 169.975 287.289 169.975C288.44 169.975 289.458 169.869 290.343 169.659C291.229 169.449 292.147 169.139 293.099 168.729V171.153C292.181 171.563 291.267 171.862 290.36 172.05C289.463 172.238 288.401 172.332 287.172 172.332C285.424 172.332 283.896 171.978 282.59 171.27C281.295 170.55 280.288 169.499 279.569 168.115C278.849 166.732 278.49 165.038 278.49 163.035C278.49 161.076 278.816 159.383 279.469 157.955C280.133 156.516 281.063 155.41 282.258 154.635C283.465 153.86 284.881 153.473 286.508 153.473ZM286.475 155.73C285.003 155.73 283.83 156.212 282.956 157.175C282.081 158.138 281.561 159.482 281.395 161.209H291.024C291.013 160.124 290.841 159.173 290.509 158.354C290.188 157.523 289.696 156.882 289.032 156.428C288.368 155.963 287.515 155.73 286.475 155.73ZM316.114 153.805H319.069L323.087 164.363C323.319 164.983 323.535 165.581 323.734 166.156C323.934 166.721 324.111 167.263 324.266 167.783C324.421 168.303 324.542 168.807 324.631 169.294H324.747C324.902 168.741 325.123 168.016 325.411 167.119C325.699 166.212 326.009 165.287 326.341 164.347L330.143 153.805H333.114L325.195 174.673C324.775 175.791 324.282 176.765 323.718 177.595C323.164 178.425 322.489 179.061 321.692 179.504C320.895 179.958 319.933 180.185 318.804 180.185C318.283 180.185 317.824 180.151 317.426 180.085C317.027 180.03 316.684 179.963 316.396 179.886V177.678C316.64 177.733 316.933 177.783 317.276 177.827C317.63 177.871 317.996 177.894 318.372 177.894C319.058 177.894 319.65 177.761 320.148 177.495C320.658 177.241 321.095 176.864 321.46 176.366C321.825 175.868 322.141 175.276 322.406 174.59L323.402 172.033L316.114 153.805ZM357.488 162.869C357.488 164.363 357.294 165.697 356.907 166.87C356.52 168.043 355.961 169.034 355.23 169.842C354.5 170.65 353.614 171.27 352.574 171.701C351.545 172.122 350.377 172.332 349.071 172.332C347.854 172.332 346.736 172.122 345.717 171.701C344.71 171.27 343.836 170.65 343.094 169.842C342.364 169.034 341.794 168.043 341.384 166.87C340.986 165.697 340.787 164.363 340.787 162.869C340.787 160.877 341.124 159.184 341.799 157.789C342.475 156.383 343.438 155.315 344.688 154.585C345.95 153.843 347.45 153.473 349.187 153.473C350.847 153.473 352.297 153.843 353.537 154.585C354.787 155.326 355.756 156.4 356.442 157.806C357.139 159.2 357.488 160.888 357.488 162.869ZM343.642 162.869C343.642 164.33 343.836 165.597 344.223 166.671C344.611 167.744 345.208 168.575 346.016 169.161C346.824 169.748 347.865 170.041 349.137 170.041C350.399 170.041 351.434 169.748 352.242 169.161C353.061 168.575 353.664 167.744 354.051 166.671C354.439 165.597 354.632 164.33 354.632 162.869C354.632 161.419 354.439 160.169 354.051 159.117C353.664 158.055 353.066 157.236 352.258 156.66C351.451 156.085 350.405 155.797 349.121 155.797C347.228 155.797 345.839 156.422 344.954 157.673C344.079 158.924 343.642 160.656 343.642 162.869ZM383.057 153.805V172H380.799L380.401 169.443H380.251C379.875 170.074 379.388 170.605 378.79 171.037C378.193 171.469 377.518 171.79 376.765 172C376.023 172.221 375.232 172.332 374.391 172.332C372.952 172.332 371.746 172.1 370.772 171.635C369.798 171.17 369.062 170.451 368.564 169.477C368.077 168.503 367.833 167.252 367.833 165.725V153.805H370.622V165.525C370.622 167.042 370.966 168.176 371.652 168.929C372.338 169.67 373.384 170.041 374.789 170.041C376.14 170.041 377.213 169.786 378.01 169.277C378.818 168.768 379.399 168.021 379.753 167.036C380.107 166.04 380.285 164.823 380.285 163.384V153.805H383.057ZM402.932 153.473C403.297 153.473 403.679 153.495 404.077 153.539C404.476 153.572 404.83 153.622 405.14 153.688L404.791 156.245C404.492 156.168 404.16 156.107 403.795 156.062C403.43 156.018 403.087 155.996 402.766 155.996C402.035 155.996 401.344 156.146 400.691 156.444C400.049 156.732 399.484 157.153 398.997 157.706C398.51 158.248 398.128 158.907 397.852 159.682C397.575 160.445 397.437 161.298 397.437 162.238V172H394.664V153.805H396.955L397.254 157.158H397.37C397.747 156.483 398.2 155.869 398.732 155.315C399.263 154.751 399.877 154.303 400.574 153.971C401.283 153.639 402.068 153.473 402.932 153.473ZM443.777 171.967L440.54 161.375C440.396 160.921 440.257 160.479 440.125 160.047C440.003 159.604 439.887 159.184 439.776 158.785C439.676 158.376 439.582 157.999 439.494 157.656C439.416 157.302 439.35 156.998 439.294 156.743H439.178C439.134 156.998 439.073 157.302 438.996 157.656C438.918 157.999 438.824 158.376 438.713 158.785C438.614 159.195 438.503 159.626 438.381 160.08C438.26 160.523 438.121 160.971 437.966 161.425L434.58 171.967H431.475L426.461 153.771H429.317L431.94 163.815C432.117 164.479 432.283 165.138 432.438 165.791C432.604 166.433 432.742 167.042 432.853 167.617C432.975 168.182 433.063 168.674 433.119 169.095H433.252C433.318 168.818 433.39 168.486 433.467 168.099C433.556 167.711 433.65 167.302 433.75 166.87C433.86 166.427 433.976 165.99 434.098 165.559C434.22 165.116 434.342 164.701 434.463 164.313L437.817 153.771H440.789L444.026 164.297C444.192 164.828 444.352 165.382 444.507 165.957C444.673 166.533 444.823 167.091 444.956 167.634C445.088 168.165 445.183 168.641 445.238 169.062H445.371C445.415 168.685 445.498 168.22 445.62 167.667C445.741 167.114 445.88 166.505 446.035 165.841C446.201 165.177 446.372 164.502 446.549 163.815L449.206 153.771H452.011L446.981 171.967H443.777ZM467.918 153.506C470.088 153.506 471.698 153.993 472.749 154.967C473.801 155.941 474.326 157.496 474.326 159.632V172H472.318L471.786 169.311H471.654C471.144 169.975 470.613 170.534 470.06 170.987C469.506 171.43 468.865 171.768 468.134 172C467.415 172.221 466.529 172.332 465.478 172.332C464.371 172.332 463.386 172.138 462.523 171.751C461.671 171.364 460.995 170.777 460.497 169.991C460.01 169.205 459.767 168.209 459.767 167.003C459.767 165.188 460.486 163.793 461.925 162.819C463.364 161.845 465.555 161.314 468.499 161.226L471.637 161.093V159.98C471.637 158.409 471.299 157.308 470.624 156.677C469.949 156.046 468.997 155.73 467.769 155.73C466.817 155.73 465.909 155.869 465.046 156.146C464.183 156.422 463.364 156.749 462.589 157.125L461.742 155.033C462.561 154.613 463.502 154.253 464.565 153.954C465.627 153.655 466.745 153.506 467.918 153.506ZM471.604 163.035L468.831 163.151C466.562 163.24 464.963 163.611 464.033 164.264C463.104 164.917 462.639 165.841 462.639 167.036C462.639 168.076 462.954 168.846 463.585 169.344C464.216 169.842 465.052 170.091 466.092 170.091C467.708 170.091 469.031 169.643 470.06 168.746C471.089 167.85 471.604 166.505 471.604 164.712V163.035ZM494.4 153.473C496.559 153.473 498.191 154.004 499.298 155.066C500.405 156.118 500.958 157.811 500.958 160.146V172H498.235V160.329C498.235 158.813 497.887 157.678 497.189 156.926C496.503 156.173 495.446 155.797 494.019 155.797C492.004 155.797 490.588 156.367 489.769 157.507C488.95 158.647 488.54 160.301 488.54 162.471V172H485.784V153.805H488.009L488.424 156.428H488.573C488.961 155.786 489.453 155.249 490.051 154.817C490.648 154.375 491.318 154.043 492.06 153.821C492.801 153.589 493.581 153.473 494.4 153.473ZM518.89 172.332C516.588 172.332 514.762 171.546 513.412 169.975C512.073 168.403 511.403 166.068 511.403 162.969C511.403 159.837 512.089 157.474 513.462 155.88C514.834 154.275 516.66 153.473 518.94 153.473C519.903 153.473 520.744 153.6 521.464 153.854C522.183 154.109 522.803 154.452 523.323 154.884C523.843 155.304 524.28 155.786 524.634 156.328H524.834C524.789 155.985 524.745 155.515 524.701 154.917C524.657 154.319 524.634 153.832 524.634 153.456V146.168H527.39V172H525.166L524.751 169.41H524.634C524.291 169.952 523.854 170.445 523.323 170.888C522.803 171.33 522.177 171.685 521.447 171.95C520.728 172.205 519.875 172.332 518.89 172.332ZM519.322 170.041C521.27 170.041 522.648 169.488 523.456 168.381C524.264 167.274 524.668 165.631 524.668 163.45V162.952C524.668 160.639 524.28 158.863 523.506 157.623C522.742 156.383 521.347 155.764 519.322 155.764C517.629 155.764 516.361 156.417 515.52 157.723C514.679 159.018 514.259 160.788 514.259 163.035C514.259 165.271 514.674 166.997 515.504 168.215C516.345 169.432 517.618 170.041 519.322 170.041ZM546.02 153.473C547.569 153.473 548.898 153.816 550.004 154.502C551.111 155.188 551.958 156.151 552.544 157.391C553.131 158.619 553.424 160.058 553.424 161.707V163.417H540.857C540.89 165.553 541.421 167.18 542.451 168.298C543.48 169.416 544.93 169.975 546.8 169.975C547.951 169.975 548.97 169.869 549.855 169.659C550.74 169.449 551.659 169.139 552.611 168.729V171.153C551.692 171.563 550.779 171.862 549.872 172.05C548.975 172.238 547.913 172.332 546.684 172.332C544.935 172.332 543.408 171.978 542.102 171.27C540.807 170.55 539.8 169.499 539.081 168.115C538.361 166.732 538.001 165.038 538.001 163.035C538.001 161.076 538.328 159.383 538.981 157.955C539.645 156.516 540.575 155.41 541.77 154.635C542.976 153.86 544.393 153.473 546.02 153.473ZM545.987 155.73C544.515 155.73 543.342 156.212 542.467 157.175C541.593 158.138 541.073 159.482 540.907 161.209H550.536C550.525 160.124 550.353 159.173 550.021 158.354C549.7 157.523 549.207 156.882 548.543 156.428C547.879 155.963 547.027 155.73 545.987 155.73ZM572.153 153.473C572.519 153.473 572.901 153.495 573.299 153.539C573.697 153.572 574.052 153.622 574.361 153.688L574.013 156.245C573.714 156.168 573.382 156.107 573.017 156.062C572.652 156.018 572.308 155.996 571.987 155.996C571.257 155.996 570.565 156.146 569.912 156.444C569.27 156.732 568.706 157.153 568.219 157.706C567.732 158.248 567.35 158.907 567.073 159.682C566.797 160.445 566.658 161.298 566.658 162.238V172H563.886V153.805H566.177L566.476 157.158H566.592C566.968 156.483 567.422 155.869 567.953 155.315C568.485 154.751 569.099 154.303 569.796 153.971C570.504 153.639 571.29 153.473 572.153 153.473ZM586.35 172H583.578V146.168H586.35V172ZM612.982 153.805V172H610.724L610.326 169.443H610.176C609.8 170.074 609.313 170.605 608.715 171.037C608.118 171.469 607.443 171.79 606.69 172C605.948 172.221 605.157 172.332 604.316 172.332C602.877 172.332 601.671 172.1 600.697 171.635C599.723 171.17 598.987 170.451 598.489 169.477C598.002 168.503 597.758 167.252 597.758 165.725V153.805H600.547V165.525C600.547 167.042 600.891 168.176 601.577 168.929C602.263 169.67 603.309 170.041 604.714 170.041C606.065 170.041 607.138 169.786 607.935 169.277C608.743 168.768 609.324 168.021 609.678 167.036C610.032 166.04 610.21 164.823 610.21 163.384V153.805H612.982ZM636.36 167.02C636.36 168.182 636.066 169.161 635.48 169.958C634.904 170.744 634.074 171.336 632.99 171.734C631.916 172.133 630.632 172.332 629.138 172.332C627.865 172.332 626.764 172.232 625.834 172.033C624.905 171.834 624.091 171.552 623.394 171.187V168.646C624.135 169.012 625.021 169.344 626.05 169.643C627.079 169.941 628.131 170.091 629.204 170.091C630.776 170.091 631.916 169.836 632.624 169.327C633.333 168.818 633.687 168.126 633.687 167.252C633.687 166.754 633.543 166.317 633.255 165.94C632.978 165.553 632.508 165.182 631.844 164.828C631.18 164.463 630.261 164.064 629.088 163.633C627.926 163.19 626.919 162.753 626.067 162.321C625.226 161.879 624.573 161.342 624.108 160.711C623.654 160.08 623.427 159.261 623.427 158.254C623.427 156.715 624.047 155.537 625.286 154.718C626.537 153.888 628.175 153.473 630.201 153.473C631.296 153.473 632.32 153.583 633.272 153.805C634.235 154.015 635.131 154.303 635.961 154.668L635.032 156.876C634.279 156.555 633.477 156.284 632.624 156.062C631.772 155.841 630.903 155.73 630.018 155.73C628.745 155.73 627.766 155.941 627.079 156.361C626.404 156.782 626.067 157.357 626.067 158.088C626.067 158.652 626.222 159.117 626.532 159.482C626.853 159.848 627.362 160.191 628.059 160.512C628.756 160.833 629.675 161.209 630.815 161.641C631.955 162.061 632.94 162.498 633.77 162.952C634.6 163.395 635.236 163.937 635.679 164.579C636.133 165.21 636.36 166.023 636.36 167.02ZM652.449 170.074C652.903 170.074 653.368 170.035 653.844 169.958C654.32 169.881 654.707 169.786 655.006 169.676V171.817C654.685 171.961 654.237 172.083 653.661 172.183C653.097 172.282 652.543 172.332 652.001 172.332C651.038 172.332 650.164 172.166 649.378 171.834C648.592 171.491 647.961 170.915 647.485 170.107C647.021 169.299 646.788 168.182 646.788 166.754V155.963H644.198V154.618L646.805 153.539L647.9 149.588H649.561V153.805H654.89V155.963H649.561V166.671C649.561 167.811 649.821 168.663 650.341 169.228C650.872 169.792 651.575 170.074 652.449 170.074ZM693.892 171.967L690.655 161.375C690.511 160.921 690.373 160.479 690.24 160.047C690.118 159.604 690.002 159.184 689.891 158.785C689.792 158.376 689.697 157.999 689.609 157.656C689.531 157.302 689.465 156.998 689.41 156.743H689.293C689.249 156.998 689.188 157.302 689.111 157.656C689.033 157.999 688.939 158.376 688.829 158.785C688.729 159.195 688.618 159.626 688.497 160.08C688.375 160.523 688.236 160.971 688.082 161.425L684.695 171.967H681.59L676.577 153.771H679.432L682.055 163.815C682.232 164.479 682.398 165.138 682.553 165.791C682.719 166.433 682.858 167.042 682.968 167.617C683.09 168.182 683.179 168.674 683.234 169.095H683.367C683.433 168.818 683.505 168.486 683.583 168.099C683.671 167.711 683.765 167.302 683.865 166.87C683.975 166.427 684.092 165.99 684.213 165.559C684.335 165.116 684.457 164.701 684.579 164.313L687.932 153.771H690.904L694.141 164.297C694.307 164.828 694.468 165.382 694.623 165.957C694.789 166.533 694.938 167.091 695.071 167.634C695.204 168.165 695.298 168.641 695.353 169.062H695.486C695.53 168.685 695.613 168.22 695.735 167.667C695.857 167.114 695.995 166.505 696.15 165.841C696.316 165.177 696.487 164.502 696.665 163.815L699.321 153.771H702.126L697.096 171.967H693.892ZM713.983 153.805V172H711.227V153.805H713.983ZM712.638 146.998C713.092 146.998 713.479 147.147 713.8 147.446C714.132 147.734 714.298 148.188 714.298 148.808C714.298 149.416 714.132 149.87 713.8 150.169C713.479 150.468 713.092 150.617 712.638 150.617C712.162 150.617 711.764 150.468 711.443 150.169C711.133 149.87 710.978 149.416 710.978 148.808C710.978 148.188 711.133 147.734 711.443 147.446C711.764 147.147 712.162 146.998 712.638 146.998ZM731.483 170.074C731.937 170.074 732.402 170.035 732.878 169.958C733.354 169.881 733.741 169.786 734.04 169.676V171.817C733.719 171.961 733.271 172.083 732.695 172.183C732.131 172.282 731.577 172.332 731.035 172.332C730.072 172.332 729.198 172.166 728.412 171.834C727.626 171.491 726.995 170.915 726.519 170.107C726.055 169.299 725.822 168.182 725.822 166.754V155.963H723.232V154.618L725.839 153.539L726.935 149.588H728.595V153.805H733.924V155.963H728.595V166.671C728.595 167.811 728.855 168.663 729.375 169.228C729.906 169.792 730.609 170.074 731.483 170.074ZM746.261 146.168V153.888C746.261 154.33 746.25 154.779 746.228 155.232C746.206 155.675 746.167 156.085 746.112 156.461H746.295C746.671 155.819 747.147 155.282 747.722 154.851C748.309 154.408 748.973 154.076 749.714 153.854C750.456 153.622 751.242 153.506 752.072 153.506C753.533 153.506 754.75 153.738 755.724 154.203C756.709 154.668 757.445 155.387 757.932 156.361C758.43 157.335 758.679 158.597 758.679 160.146V172H755.957V160.329C755.957 158.813 755.608 157.678 754.911 156.926C754.225 156.173 753.168 155.797 751.74 155.797C750.39 155.797 749.311 156.057 748.503 156.577C747.706 157.086 747.13 157.839 746.776 158.835C746.433 159.831 746.261 161.049 746.261 162.487V172H743.505V146.168H746.261ZM799.773 153.805V172H797.516L797.117 169.443H796.968C796.592 170.074 796.105 170.605 795.507 171.037C794.909 171.469 794.234 171.79 793.482 172C792.74 172.221 791.949 172.332 791.107 172.332C789.669 172.332 788.462 172.1 787.488 171.635C786.514 171.17 785.778 170.451 785.28 169.477C784.793 168.503 784.55 167.252 784.55 165.725V153.805H787.339V165.525C787.339 167.042 787.682 168.176 788.368 168.929C789.054 169.67 790.1 170.041 791.506 170.041C792.856 170.041 793.93 169.786 794.727 169.277C795.535 168.768 796.116 168.021 796.47 167.036C796.824 166.04 797.001 164.823 797.001 163.384V153.805H799.773ZM823.151 167.02C823.151 168.182 822.858 169.161 822.271 169.958C821.696 170.744 820.866 171.336 819.781 171.734C818.707 172.133 817.424 172.332 815.93 172.332C814.657 172.332 813.555 172.232 812.626 172.033C811.696 171.834 810.883 171.552 810.185 171.187V168.646C810.927 169.012 811.812 169.344 812.842 169.643C813.871 169.941 814.922 170.091 815.996 170.091C817.568 170.091 818.707 169.836 819.416 169.327C820.124 168.818 820.478 168.126 820.478 167.252C820.478 166.754 820.334 166.317 820.047 165.94C819.77 165.553 819.3 165.182 818.636 164.828C817.971 164.463 817.053 164.064 815.88 163.633C814.718 163.19 813.71 162.753 812.858 162.321C812.017 161.879 811.364 161.342 810.899 160.711C810.445 160.08 810.219 159.261 810.219 158.254C810.219 156.715 810.838 155.537 812.078 154.718C813.329 153.888 814.967 153.473 816.992 153.473C818.088 153.473 819.111 153.583 820.063 153.805C821.026 154.015 821.923 154.303 822.753 154.668L821.823 156.876C821.07 156.555 820.268 156.284 819.416 156.062C818.564 155.841 817.695 155.73 816.809 155.73C815.537 155.73 814.557 155.941 813.871 156.361C813.196 156.782 812.858 157.357 812.858 158.088C812.858 158.652 813.013 159.117 813.323 159.482C813.644 159.848 814.153 160.191 814.85 160.512C815.548 160.833 816.466 161.209 817.606 161.641C818.746 162.061 819.731 162.498 820.561 162.952C821.391 163.395 822.028 163.937 822.471 164.579C822.924 165.21 823.151 166.023 823.151 167.02Z" fill="#313341"/>
</svg>
